<svg width="158" height="30" viewBox="0 0 158 30" fill="none" xmlns="http://www.w3.org/2000/svg">
<path d="M18.4703 8.40557C18.4703 9.7162 18.2237 10.9856 17.7303 12.2136C17.2472 13.4314 16.5894 14.5769 15.7568 15.6502C14.9243 16.7234 13.953 17.709 12.8429 18.6068C11.7431 19.5046 10.5765 20.2838 9.34309 20.9443C8.10968 21.6047 6.84543 22.1311 5.55035 22.5232C4.25527 22.9154 3.00644 23.1476 1.80386 23.2198V5.86687L4.9799 4.73684V21.5944C6.42916 21.1713 7.75507 20.5624 8.95765 19.7678C10.1705 18.9628 11.2138 18.0134 12.0874 16.9195C12.9611 15.8256 13.6395 14.6027 14.1226 13.2508C14.6159 11.8989 14.8626 10.4541 14.8626 8.91641C14.8626 8.03922 14.7495 7.2033 14.5234 6.40867C14.3076 5.60372 13.9684 4.90196 13.5059 4.30341C13.0536 3.69453 12.478 3.21465 11.7791 2.86378C11.0801 2.50258 10.2476 2.32198 9.28142 2.32198C8.48998 2.32198 7.6934 2.4097 6.89169 2.58514C6.10025 2.76058 5.32423 3.00826 4.56362 3.32817C3.8133 3.63777 3.08867 4.00929 2.38973 4.44272C1.70108 4.87616 1.06382 5.35088 0.477947 5.86687L0 5.34056C0.616706 4.66976 1.34647 4.04025 2.18931 3.45201C3.03214 2.85346 3.9315 2.3323 4.88739 1.88854C5.84329 1.43447 6.82488 1.07843 7.83216 0.820433C8.83945 0.552116 9.8159 0.417957 10.7615 0.417957C12.036 0.417957 13.1564 0.608875 14.1226 0.990712C15.0887 1.37255 15.8904 1.91434 16.5277 2.6161C17.1753 3.31785 17.6583 4.15893 17.977 5.13932C18.3059 6.11971 18.4703 7.20846 18.4703 8.40557Z" fill="#AA182C"/>
<path d="M31.9916 20.9907C31.8683 21.259 31.7141 21.5119 31.5291 21.7492C31.3441 21.9866 31.1282 22.1981 30.8815 22.3839C30.6451 22.5697 30.383 22.7193 30.0952 22.8328C29.8177 22.936 29.5248 22.9876 29.2164 22.9876C28.4044 22.9876 27.8186 22.7657 27.4588 22.322C27.1094 21.8679 26.9346 21.2539 26.9346 20.4799V20.2012C26.7496 20.5521 26.5389 20.903 26.3025 21.2539C26.0764 21.6047 25.8143 21.9195 25.5162 22.1981C25.2284 22.4768 24.9046 22.7038 24.5449 22.8793C24.1851 23.0547 23.7843 23.1424 23.3423 23.1424C22.6742 23.1424 22.0832 23.0134 21.5693 22.7554C21.0554 22.4974 20.6237 22.1517 20.2742 21.7183C19.9247 21.2745 19.6626 20.7585 19.4879 20.1703C19.3132 19.582 19.2258 18.9577 19.2258 18.2972C19.2258 17.3994 19.38 16.5067 19.6883 15.6192C20.007 14.7214 20.4489 13.9216 21.0142 13.2198C21.5898 12.5181 22.2734 11.9505 23.0648 11.517C23.8665 11.0733 24.7556 10.8514 25.732 10.8514C26.1226 10.8514 26.5132 10.8875 26.9038 10.9598C27.2944 11.032 27.6644 11.1507 28.0139 11.3158C28.3736 11.4706 28.6974 11.677 28.9852 11.935C29.2832 12.193 29.5248 12.5077 29.7098 12.8793L27.4126 13.8545C27.2892 13.6584 27.1453 13.4727 26.9809 13.2972C26.8267 13.1115 26.652 12.9515 26.4567 12.8173C26.2717 12.6832 26.0712 12.5748 25.8554 12.4923C25.6395 12.4097 25.4134 12.3684 25.177 12.3684C24.6425 12.3684 24.1646 12.5335 23.7432 12.8638C23.332 13.194 22.9774 13.6017 22.6794 14.0867C22.3916 14.5717 22.1706 15.0877 22.0164 15.6347C21.8622 16.1816 21.7851 16.677 21.7851 17.1207C21.7851 17.5129 21.8211 17.9567 21.8931 18.452C21.9753 18.937 22.114 19.3963 22.3093 19.8297C22.5046 20.2632 22.7616 20.6295 23.0802 20.9288C23.3988 21.2281 23.7997 21.3777 24.2828 21.3777C24.6631 21.3777 24.992 21.2951 25.2695 21.13C25.547 20.9546 25.7834 20.7327 25.9787 20.4644C26.174 20.1858 26.3333 19.871 26.4567 19.5201C26.5903 19.1589 26.6879 18.7926 26.7496 18.4211C26.8216 18.0495 26.8678 17.6832 26.8884 17.322C26.9192 16.9505 26.9346 16.6202 26.9346 16.3313V15.2632L29.7406 14.2724V20.5573C29.7406 20.7637 29.792 20.9546 29.8948 21.13C29.9976 21.2951 30.1569 21.3777 30.3728 21.3777C30.6297 21.3777 30.861 21.2848 31.0665 21.0991C31.2824 20.903 31.452 20.7069 31.5753 20.5108L31.9916 20.9907Z" fill="#AA182C"/>
<path d="M39.3304 21.0217C39.094 21.5273 38.8216 21.9143 38.5133 22.1827C38.2049 22.451 37.9017 22.6471 37.6036 22.7709C37.2644 22.9154 36.915 22.9979 36.5552 23.0186C36.0927 23.0186 35.7124 22.9463 35.4143 22.8019C35.1265 22.6574 34.8953 22.4665 34.7205 22.2291C34.5561 21.9917 34.4379 21.7234 34.3659 21.4241C34.3043 21.1249 34.2734 20.8204 34.2734 20.5108V12.3994H32.6391L33.3021 10.8514H34.2734V5.37152L37.0948 4.38081V10.8514H40.0242L39.3921 12.3994H37.0948V20.5882C37.0948 20.8359 37.1514 21.032 37.2644 21.1765C37.3775 21.3209 37.5214 21.3983 37.6961 21.4087C37.8709 21.4087 38.0662 21.3416 38.282 21.2074C38.4979 21.0733 38.7086 20.8566 38.9141 20.5573L39.3304 21.0217Z" fill="#AA182C"/>
<path d="M54.1005 20.9907C53.9772 21.259 53.823 21.5119 53.638 21.7492C53.453 21.9866 53.2371 22.1981 52.9904 22.3839C52.754 22.5697 52.4919 22.7193 52.2041 22.8328C51.9266 22.936 51.6337 22.9876 51.3253 22.9876C50.5133 22.9876 49.9275 22.7657 49.5677 22.322C49.2183 21.8679 49.0435 21.2539 49.0435 20.4799V20.2012C48.8585 20.5521 48.6478 20.903 48.4114 21.2539C48.1853 21.6047 47.9232 21.9195 47.6251 22.1981C47.3373 22.4768 47.0135 22.7038 46.6538 22.8793C46.294 23.0547 45.8932 23.1424 45.4512 23.1424C44.7831 23.1424 44.1921 23.0134 43.6782 22.7554C43.1643 22.4974 42.7326 22.1517 42.3831 21.7183C42.0336 21.2745 41.7715 20.7585 41.5968 20.1703C41.4221 19.582 41.3347 18.9577 41.3347 18.2972C41.3347 17.3994 41.4889 16.5067 41.7972 15.6192C42.1159 14.7214 42.5578 13.9216 43.1231 13.2198C43.6987 12.5181 44.3823 11.9505 45.1737 11.517C45.9754 11.0733 46.8645 10.8514 47.8409 10.8514C48.2315 10.8514 48.6221 10.8875 49.0127 10.9598C49.4033 11.032 49.7733 11.1507 50.1228 11.3158C50.4825 11.4706 50.8063 11.677 51.0941 11.935C51.3921 12.193 51.6337 12.5077 51.8187 12.8793L49.5215 13.8545C49.3981 13.6584 49.2542 13.4727 49.0898 13.2972C48.9356 13.1115 48.7609 12.9515 48.5656 12.8173C48.3806 12.6832 48.1801 12.5748 47.9643 12.4923C47.7484 12.4097 47.5223 12.3684 47.2859 12.3684C46.7514 12.3684 46.2735 12.5335 45.8521 12.8638C45.4409 13.194 45.0863 13.6017 44.7882 14.0867C44.5005 14.5717 44.2795 15.0877 44.1253 15.6347C43.9711 16.1816 43.894 16.677 43.894 17.1207C43.894 17.5129 43.93 17.9567 44.002 18.452C44.0842 18.937 44.2229 19.3963 44.4182 19.8297C44.6135 20.2632 44.8705 20.6295 45.1891 20.9288C45.5077 21.2281 45.9086 21.3777 46.3917 21.3777C46.772 21.3777 47.1009 21.2951 47.3784 21.13C47.6559 20.9546 47.8923 20.7327 48.0876 20.4644C48.2829 20.1858 48.4422 19.871 48.5656 19.5201C48.6992 19.1589 48.7968 18.7926 48.8585 18.4211C48.9305 18.0495 48.9767 17.6832 48.9973 17.322C49.0281 16.9505 49.0435 16.6202 49.0435 16.3313V15.2632L51.8495 14.2724V20.5573C51.8495 20.7637 51.9009 20.9546 52.0037 21.13C52.1065 21.2951 52.2658 21.3777 52.4817 21.3777C52.7386 21.3777 52.9699 21.2848 53.1754 21.0991C53.3913 20.903 53.5609 20.7069 53.6842 20.5108L54.1005 20.9907Z" fill="#AA182C"/>
<path d="M70.3199 3.74613L67.7297 6.88854C67.5036 6.20743 67.2106 5.55728 66.8509 4.93808C66.4912 4.31889 66.0646 3.77709 65.5712 3.31269C65.0779 2.8483 64.5177 2.47678 63.8907 2.19814C63.2637 1.9195 62.5648 1.78019 61.7939 1.78019C61.2389 1.78019 60.725 1.88338 60.2521 2.08978C59.7793 2.28586 59.3631 2.5645 59.0033 2.9257C58.6539 3.27657 58.3763 3.69453 58.1708 4.17957C57.9755 4.6646 57.8778 5.18576 57.8778 5.74303C57.8778 6.32095 57.9858 6.86275 58.2016 7.36842C58.4174 7.8741 58.7052 8.33333 59.065 8.74613C59.4247 9.14861 59.8359 9.49948 60.2984 9.79876C60.7712 10.098 61.2594 10.3302 61.7631 10.4954C62.2667 10.6708 62.7961 10.8669 63.3511 11.0836C63.9061 11.3003 64.4509 11.5531 64.9854 11.8421C65.5198 12.1311 66.0286 12.4561 66.5117 12.8173C66.9948 13.1682 67.4214 13.5655 67.7914 14.0093C68.1614 14.453 68.4543 14.9484 68.6702 15.4954C68.886 16.032 68.9939 16.6202 68.9939 17.2601C68.9939 18.1889 68.7884 19.0248 68.3772 19.7678C67.9764 20.5005 67.447 21.1197 66.7892 21.6254C66.1314 22.1311 65.3759 22.5181 64.5228 22.7864C63.68 23.0547 62.8218 23.1889 61.9481 23.1889C61.3519 23.1889 60.7455 23.1011 60.1288 22.9257C59.5224 22.7503 58.9365 22.5129 58.3712 22.2136C57.8162 21.904 57.292 21.548 56.7986 21.1455C56.3155 20.743 55.8941 20.3096 55.5343 19.8452L58.032 16.9659C58.1862 17.4613 58.4534 17.9876 58.8337 18.5449C59.2243 19.1022 59.6766 19.6182 60.1905 20.0929C60.7044 20.5676 61.2543 20.9649 61.8402 21.2848C62.4363 21.5944 63.0119 21.7492 63.5669 21.7492C63.8856 21.7492 64.2145 21.6667 64.5537 21.5015C64.8929 21.3364 65.2012 21.1249 65.4787 20.8669C65.7665 20.5986 66.0029 20.3096 66.1879 20C66.373 19.6904 66.4655 19.386 66.4655 19.0867C66.4655 18.6326 66.373 18.2043 66.1879 17.8019C66.0029 17.3891 65.7562 17.0021 65.4479 16.6409C65.1498 16.2797 64.8003 15.9494 64.3995 15.6502C64.0089 15.3406 63.5978 15.0671 63.1661 14.8297C62.7447 14.582 62.3181 14.3705 61.8864 14.195C61.465 14.0093 61.0744 13.8648 60.7147 13.7616C60.0055 13.5449 59.3117 13.2353 58.6333 12.8328C57.9652 12.4303 57.369 11.9453 56.8448 11.3777C56.3206 10.8101 55.8992 10.1754 55.5806 9.47368C55.262 8.76161 55.1027 8.0031 55.1027 7.19814C55.1027 6.50671 55.2106 5.85139 55.4264 5.2322C55.6423 4.613 55.9403 4.04025 56.3206 3.51393C56.701 2.98762 57.1481 2.5129 57.662 2.08978C58.1759 1.65635 58.7309 1.29515 59.3271 1.00619C59.9232 0.706914 60.5451 0.479876 61.1926 0.325077C61.8402 0.159959 62.4928 0.0773994 63.1507 0.0773994C64.5896 0.0773994 65.9258 0.402477 67.1592 1.05263C68.3927 1.69247 69.4462 2.5903 70.3199 3.74613Z" fill="#AA182C"/>
<path d="M81.8985 21.5635C81.8985 22.3065 81.806 23.0289 81.621 23.7306C81.436 24.4427 81.179 25.1084 80.8501 25.7276C80.5315 26.3571 80.1512 26.9298 79.7092 27.4458C79.2672 27.9721 78.7842 28.4211 78.26 28.7926C77.746 29.1744 77.2013 29.4685 76.6257 29.6749C76.0501 29.8916 75.4694 30 74.8835 30C74.4415 30 74.0252 29.9226 73.6347 29.7678C73.2441 29.6233 72.8741 29.4272 72.5246 29.1796L74.2514 26.9814C74.4055 27.1053 74.5751 27.2343 74.7601 27.3684C74.9554 27.5026 75.1559 27.6213 75.3614 27.7245C75.567 27.838 75.7777 27.9257 75.9936 27.9876C76.2197 28.0599 76.4407 28.096 76.6565 28.096C77.0471 28.096 77.376 27.9773 77.6432 27.7399C77.9208 27.5026 78.1469 27.1981 78.3216 26.8266C78.4964 26.4551 78.6351 26.032 78.7379 25.5573C78.8407 25.0929 78.9126 24.6285 78.9538 24.1641C79.0051 23.6997 79.036 23.2559 79.0462 22.8328C79.0565 22.42 79.0617 22.0795 79.0617 21.8111V15.5728C78.9794 15.934 78.8715 16.3725 78.7379 16.8885C78.6043 17.3942 78.4347 17.9309 78.2291 18.4985C78.0338 19.0557 77.8077 19.613 77.5507 20.1703C77.2938 20.7172 77.0008 21.2126 76.6719 21.6563C76.3533 22.1001 75.9936 22.4613 75.5927 22.7399C75.2021 23.0083 74.7756 23.1424 74.313 23.1424C73.8402 23.1424 73.4805 23.0392 73.2338 22.8328C72.9974 22.6161 72.8227 22.3478 72.7096 22.0279C72.6068 21.6976 72.5503 21.3364 72.54 20.9443C72.5297 20.5521 72.5246 20.1754 72.5246 19.8142V13.1269C72.5246 12.9412 72.4732 12.7606 72.3704 12.5851C72.2676 12.3994 72.1083 12.3065 71.8925 12.3065C71.6355 12.3065 71.3991 12.4045 71.1833 12.6006C70.9777 12.7864 70.8132 12.9721 70.6899 13.1579L70.2736 12.6935C70.397 12.4355 70.5511 12.1878 70.7361 11.9505C70.9314 11.7028 71.1473 11.4861 71.3837 11.3003C71.6304 11.1146 71.8925 10.9701 72.17 10.8669C72.4578 10.7534 72.7559 10.6966 73.0642 10.6966C73.8659 10.6966 74.4415 10.9236 74.791 11.3777C75.1507 11.8215 75.3306 12.4252 75.3306 13.1889V19.5666C75.3306 19.6285 75.3306 19.711 75.3306 19.8142C75.3409 19.9071 75.3614 20 75.3923 20.0929C75.4231 20.1754 75.4694 20.2528 75.531 20.3251C75.5927 20.387 75.6749 20.418 75.7777 20.418C75.973 20.418 76.1734 20.3044 76.379 20.0774C76.5846 19.8504 76.7799 19.5872 76.9649 19.2879C77.1499 18.9886 77.3092 18.6894 77.4428 18.3901C77.5764 18.0908 77.6741 17.8689 77.7358 17.7245C77.9208 17.2807 78.0852 16.7957 78.2291 16.2694C78.373 15.743 78.4964 15.2064 78.5991 14.6594C78.7122 14.1022 78.8047 13.5552 78.8767 13.0186C78.9589 12.4716 79.0206 11.9505 79.0617 11.4551L81.8985 10.4644V21.5635Z" fill="#AA182C"/>
<path d="M98.1179 21.0217C97.9945 21.29 97.8352 21.5428 97.6399 21.7802C97.4446 22.0175 97.2237 22.2291 96.977 22.4149C96.7406 22.6006 96.4836 22.7451 96.2061 22.8483C95.9286 22.9618 95.6408 23.0186 95.3427 23.0186C94.5307 23.0186 93.9397 22.7967 93.5697 22.3529C93.2099 21.8989 93.0301 21.2848 93.0301 20.5108V14.2105C93.0301 14.1383 93.0249 14.0557 93.0146 13.9628C93.0146 13.8596 92.9992 13.7668 92.9684 13.6842C92.9375 13.5913 92.8964 13.5139 92.845 13.452C92.7936 13.3901 92.7217 13.3591 92.6292 13.3591C92.3414 13.3591 92.0485 13.5346 91.7504 13.8854C91.4626 14.2363 91.1799 14.6904 90.9024 15.2477C90.6352 15.805 90.3834 16.4293 90.147 17.1207C89.9208 17.8122 89.7204 18.4985 89.5457 19.1796C89.3709 19.8504 89.2322 20.4799 89.1294 21.0681C89.0369 21.6563 88.9906 22.1259 88.9906 22.4768L86.1846 23.4675V13.065C86.1846 12.8586 86.1332 12.6729 86.0304 12.5077C85.9277 12.3323 85.7683 12.2446 85.5525 12.2446C85.2955 12.2446 85.0591 12.3426 84.8433 12.5387C84.6377 12.7245 84.4733 12.9102 84.3499 13.096L83.9336 12.6316C84.057 12.3736 84.2112 12.1259 84.3962 11.8885C84.5915 11.6409 84.8073 11.4241 85.0437 11.2384C85.2904 11.0526 85.5525 10.9082 85.83 10.805C86.1178 10.6914 86.4159 10.6347 86.7242 10.6347C87.526 10.6347 88.1015 10.8617 88.451 11.3158C88.8108 11.7595 88.9906 12.3633 88.9906 13.1269V18.1734C89.0831 17.7503 89.2065 17.2704 89.3607 16.7337C89.5251 16.1868 89.7204 15.6347 89.9465 15.0774C90.1727 14.5201 90.4245 13.9783 90.702 13.452C90.9898 12.9154 91.3033 12.4407 91.6425 12.0279C91.9817 11.6047 92.3517 11.2693 92.7525 11.0217C93.1534 10.7637 93.5851 10.6347 94.0476 10.6347C94.5307 10.6347 94.8956 10.743 95.1423 10.9598C95.389 11.1662 95.5637 11.4345 95.6665 11.7647C95.7795 12.0846 95.8412 12.4407 95.8515 12.8328C95.8618 13.225 95.8669 13.6017 95.8669 13.9628V20.5882C95.8669 20.7946 95.9183 20.9856 96.0211 21.161C96.1239 21.3261 96.2832 21.4087 96.499 21.4087C96.7354 21.4087 96.9564 21.3158 97.162 21.13C97.3778 20.934 97.5474 20.743 97.6708 20.5573L98.1179 21.0217Z" fill="#AA182C"/>
<path d="M110.329 19.4737C109.969 19.9381 109.573 20.3922 109.141 20.8359C108.72 21.2693 108.258 21.6563 107.754 21.9969C107.261 22.3375 106.736 22.6161 106.181 22.8328C105.626 23.0392 105.051 23.1424 104.455 23.1424C103.694 23.1424 102.995 23.0083 102.358 22.7399C101.72 22.4716 101.171 22.0898 100.708 21.5944C100.246 21.0991 99.8858 20.5005 99.6288 19.7988C99.3718 19.097 99.2434 18.3127 99.2434 17.4458C99.2434 16.5377 99.4232 15.676 99.783 14.8607C100.153 14.0454 100.641 13.3333 101.248 12.7245C101.864 12.1053 102.579 11.6202 103.391 11.2693C104.203 10.9082 105.056 10.7276 105.95 10.7276C106.3 10.7276 106.649 10.7637 106.998 10.8359C107.358 10.8978 107.697 11.001 108.016 11.1455C108.345 11.2797 108.643 11.4654 108.91 11.7028C109.188 11.9298 109.419 12.2033 109.604 12.5232L107.399 13.7306C107.297 13.483 107.147 13.2663 106.952 13.0805C106.767 12.8947 106.556 12.7399 106.32 12.6161C106.084 12.4923 105.832 12.3994 105.565 12.3375C105.308 12.2755 105.056 12.2446 104.809 12.2446C104.316 12.2446 103.874 12.3581 103.483 12.5851C103.093 12.8019 102.759 13.0908 102.481 13.452C102.214 13.8029 102.008 14.2054 101.864 14.6594C101.72 15.1032 101.649 15.5573 101.649 16.0217C101.649 16.9092 101.756 17.6935 101.972 18.3746C102.188 19.0557 102.486 19.6285 102.867 20.0929C103.247 20.5573 103.694 20.9082 104.208 21.1455C104.722 21.3829 105.282 21.5015 105.888 21.5015C106.238 21.5015 106.598 21.4138 106.968 21.2384C107.338 21.063 107.692 20.8462 108.031 20.5882C108.381 20.3199 108.71 20.0361 109.018 19.7368C109.337 19.4376 109.619 19.1692 109.866 18.9319L110.329 19.4737Z" fill="#AA182C"/>
<path d="M123.48 22.1672L120.288 23.3127V1.14551L123.48 0V22.1672Z" fill="#AA182C"/>
<path d="M140.208 21.0217C140.085 21.29 139.925 21.5428 139.73 21.7802C139.535 22.0175 139.314 22.2291 139.067 22.4149C138.831 22.6006 138.574 22.7451 138.296 22.8483C138.019 22.9618 137.731 23.0186 137.433 23.0186C136.621 23.0186 136.03 22.7967 135.66 22.3529C135.3 21.8989 135.12 21.2848 135.12 20.5108V14.2105C135.12 14.1383 135.115 14.0557 135.105 13.9628C135.105 13.8596 135.089 13.7668 135.059 13.6842C135.028 13.5913 134.987 13.5139 134.935 13.452C134.884 13.3901 134.812 13.3591 134.719 13.3591C134.432 13.3591 134.139 13.5346 133.841 13.8854C133.553 14.2363 133.27 14.6904 132.993 15.2477C132.725 15.805 132.474 16.4293 132.237 17.1207C132.011 17.8122 131.811 18.4985 131.636 19.1796C131.461 19.8504 131.322 20.4799 131.22 21.0681C131.127 21.6563 131.081 22.1259 131.081 22.4768L128.275 23.4675V13.065C128.275 12.8586 128.223 12.6729 128.121 12.5077C128.018 12.3323 127.859 12.2446 127.643 12.2446C127.386 12.2446 127.149 12.3426 126.933 12.5387C126.728 12.7245 126.563 12.9102 126.44 13.096L126.024 12.6316C126.147 12.3736 126.301 12.1259 126.486 11.8885C126.682 11.6409 126.897 11.4241 127.134 11.2384C127.381 11.0526 127.643 10.9082 127.92 10.805C128.208 10.6914 128.506 10.6347 128.814 10.6347C129.616 10.6347 130.192 10.8617 130.541 11.3158C130.901 11.7595 131.081 12.3633 131.081 13.1269V18.1734C131.173 17.7503 131.297 17.2704 131.451 16.7337C131.615 16.1868 131.811 15.6347 132.037 15.0774C132.263 14.5201 132.515 13.9783 132.792 13.452C133.08 12.9154 133.393 12.4407 133.733 12.0279C134.072 11.6047 134.442 11.2693 134.843 11.0217C135.244 10.7637 135.675 10.6347 136.138 10.6347C136.621 10.6347 136.986 10.743 137.232 10.9598C137.479 11.1662 137.654 11.4345 137.757 11.7647C137.87 12.0846 137.931 12.4407 137.942 12.8328C137.952 13.225 137.957 13.6017 137.957 13.9628V20.5882C137.957 20.7946 138.008 20.9856 138.111 21.161C138.214 21.3261 138.373 21.4087 138.589 21.4087C138.826 21.4087 139.047 21.3158 139.252 21.13C139.468 20.934 139.638 20.743 139.761 20.5573L140.208 21.0217Z" fill="#AA182C"/>
<path d="M152.419 19.4737C152.059 19.9381 151.663 20.3922 151.232 20.8359C150.81 21.2693 150.348 21.6563 149.844 21.9969C149.351 22.3375 148.827 22.6161 148.271 22.8328C147.716 23.0392 147.141 23.1424 146.545 23.1424C145.784 23.1424 145.085 23.0083 144.448 22.7399C143.811 22.4716 143.261 22.0898 142.798 21.5944C142.336 21.0991 141.976 20.5005 141.719 19.7988C141.462 19.097 141.334 18.3127 141.334 17.4458C141.334 16.5377 141.513 15.676 141.873 14.8607C142.243 14.0454 142.731 13.3333 143.338 12.7245C143.955 12.1053 144.669 11.6202 145.481 11.2693C146.293 10.9082 147.146 10.7276 148.04 10.7276C148.39 10.7276 148.739 10.7637 149.089 10.8359C149.448 10.8978 149.788 11.001 150.106 11.1455C150.435 11.2797 150.733 11.4654 151 11.7028C151.278 11.9298 151.509 12.2033 151.694 12.5232L149.489 13.7306C149.387 13.483 149.238 13.2663 149.042 13.0805C148.857 12.8947 148.647 12.7399 148.41 12.6161C148.174 12.4923 147.922 12.3994 147.655 12.3375C147.398 12.2755 147.146 12.2446 146.899 12.2446C146.406 12.2446 145.964 12.3581 145.573 12.5851C145.183 12.8019 144.849 13.0908 144.571 13.452C144.304 13.8029 144.098 14.2054 143.955 14.6594C143.811 15.1032 143.739 15.5573 143.739 16.0217C143.739 16.9092 143.847 17.6935 144.062 18.3746C144.278 19.0557 144.576 19.6285 144.957 20.0929C145.337 20.5573 145.784 20.9082 146.298 21.1455C146.812 21.3829 147.372 21.5015 147.979 21.5015C148.328 21.5015 148.688 21.4138 149.058 21.2384C149.428 21.063 149.782 20.8462 150.122 20.5882C150.471 20.3199 150.8 20.0361 151.108 19.7368C151.427 19.4376 151.71 19.1692 151.956 18.9319L152.419 19.4737Z" fill="#AA182C"/>
<path d="M158 21.6563C158 21.904 157.949 22.1362 157.846 22.3529C157.753 22.5697 157.625 22.7554 157.46 22.9102C157.306 23.0753 157.116 23.2043 156.89 23.2972C156.674 23.3901 156.443 23.4365 156.196 23.4365C155.949 23.4365 155.718 23.3901 155.502 23.2972C155.297 23.2043 155.112 23.0753 154.947 22.9102C154.783 22.7554 154.654 22.5697 154.562 22.3529C154.469 22.1362 154.423 21.904 154.423 21.6563C154.423 21.4087 154.469 21.1765 154.562 20.9598C154.654 20.743 154.783 20.5521 154.947 20.387C155.112 20.2219 155.297 20.0929 155.502 20C155.718 19.8968 155.949 19.8452 156.196 19.8452C156.443 19.8452 156.674 19.8968 156.89 20C157.116 20.0929 157.306 20.2219 157.46 20.387C157.625 20.5521 157.753 20.743 157.846 20.9598C157.949 21.1765 158 21.4087 158 21.6563Z" fill="#AA182C"/>
</svg>
