<svg width="48" height="48" viewBox="0 0 48 48" fill="none" xmlns="http://www.w3.org/2000/svg">
<path fill-rule="evenodd" clip-rule="evenodd" d="M32 26C32 30.4183 28.4183 34 24 34C19.5817 34 16 30.4183 16 26C16 21.5817 19.5817 18 24 18C26.1217 18 28.1566 18.8429 29.6569 20.3431C31.1571 21.8434 32 23.8783 32 26Z" stroke="#1D1D1D" stroke-width="1.5" stroke-linecap="round" stroke-linejoin="round"/>
<path d="M18 12.75C18.4142 12.75 18.75 12.4142 18.75 12C18.75 11.5858 18.4142 11.25 18 11.25V12.75ZM30 11.25C29.5858 11.25 29.25 11.5858 29.25 12C29.25 12.4142 29.5858 12.75 30 12.75V11.25ZM18 11.25C17.5858 11.25 17.25 11.5858 17.25 12C17.25 12.4142 17.5858 12.75 18 12.75V11.25ZM30 12.75C30.4142 12.75 30.75 12.4142 30.75 12C30.75 11.5858 30.4142 11.25 30 11.25V12.75ZM18.75 12C18.75 11.5858 18.4142 11.25 18 11.25C17.5858 11.25 17.25 11.5858 17.25 12H18.75ZM17.25 14C17.25 14.4142 17.5858 14.75 18 14.75C18.4142 14.75 18.75 14.4142 18.75 14H17.25ZM17.25 12C17.25 12.4142 17.5858 12.75 18 12.75C18.4142 12.75 18.75 12.4142 18.75 12H17.25ZM18.75 8C18.75 7.58579 18.4142 7.25 18 7.25C17.5858 7.25 17.25 7.58579 17.25 8H18.75ZM30.75 12C30.75 11.5858 30.4142 11.25 30 11.25C29.5858 11.25 29.25 11.5858 29.25 12H30.75ZM29.25 14C29.25 14.4142 29.5858 14.75 30 14.75C30.4142 14.75 30.75 14.4142 30.75 14H29.25ZM29.25 12C29.25 12.4142 29.5858 12.75 30 12.75C30.4142 12.75 30.75 12.4142 30.75 12H29.25ZM30.75 8C30.75 7.58579 30.4142 7.25 30 7.25C29.5858 7.25 29.25 7.58579 29.25 8H30.75ZM23.6074 23.7139C23.6074 23.2997 23.2716 22.9639 22.8574 22.9639C22.4432 22.9639 22.1074 23.2997 22.1074 23.7139H23.6074ZM22.8574 27.1419H22.1074C22.1074 27.5561 22.4432 27.8919 22.8574 27.8919V27.1419ZM26.2854 27.8919C26.6996 27.8919 27.0354 27.5561 27.0354 27.1419C27.0354 26.7277 26.6996 26.3919 26.2854 26.3919V27.8919ZM18 11.25C13.1675 11.25 9.25 15.1675 9.25 20H10.75C10.75 15.9959 13.9959 12.75 18 12.75V11.25ZM9.25 20V32H10.75V20H9.25ZM9.25 32C9.25 36.8325 13.1675 40.75 18 40.75V39.25C13.9959 39.25 10.75 36.0041 10.75 32H9.25ZM18 40.75H30V39.25H18V40.75ZM30 40.75C34.8325 40.75 38.75 36.8325 38.75 32H37.25C37.25 36.0041 34.0041 39.25 30 39.25V40.75ZM38.75 32V20H37.25V32H38.75ZM38.75 20C38.75 15.1675 34.8325 11.25 30 11.25V12.75C34.0041 12.75 37.25 15.9959 37.25 20H38.75ZM18 12.75H30V11.25H18V12.75ZM17.25 12V14H18.75V12H17.25ZM18.75 12V8H17.25V12H18.75ZM29.25 12V14H30.75V12H29.25ZM30.75 12V8H29.25V12H30.75ZM22.1074 23.7139V27.1419H23.6074V23.7139H22.1074ZM22.8574 27.8919H26.2854V26.3919H22.8574V27.8919Z" fill="#1D1D1D"/>
</svg>
