<svg width="24" height="24" viewBox="0 0 24 24" fill="none" xmlns="http://www.w3.org/2000/svg">
<g id="Users">
<g id="Vector">
<path id="Vector-28" fill-rule="evenodd" clip-rule="evenodd" d="M14.375 7.375C14.375 8.68668 13.3117 9.75 12 9.75C10.6883 9.75 9.625 8.68668 9.625 7.375C9.625 6.06332 10.6883 5 12 5C13.3117 5 14.375 6.06332 14.375 7.375Z" stroke="white" stroke-width="1.5" stroke-linecap="round" stroke-linejoin="round"/>
<path id="Vector-29" fill-rule="evenodd" clip-rule="evenodd" d="M16.75 15.7748C16.75 17.5748 14.623 19.0418 12 19.0418C9.377 19.0418 7.25 17.5788 7.25 15.7748C7.25 13.9708 9.377 12.5088 12 12.5088C14.623 12.5088 16.75 13.9708 16.75 15.7748Z" stroke="white" stroke-width="1.5" stroke-linecap="round" stroke-linejoin="round"/>
<path id="Vector-30" fill-rule="evenodd" clip-rule="evenodd" d="M19.4006 9.55288C19.4108 10.1314 19.0701 10.6586 18.5385 10.8871C18.0069 11.1156 17.3899 10.9999 16.9772 10.5944C16.5644 10.1889 16.4378 9.57405 16.6569 9.03849C16.8759 8.50293 17.397 8.15297 17.9756 8.15288C18.7556 8.14623 19.3935 8.77289 19.4006 9.55288V9.55288Z" stroke="white" stroke-width="1.5" stroke-linecap="round" stroke-linejoin="round"/>
<path id="Vector-31" fill-rule="evenodd" clip-rule="evenodd" d="M4.59983 9.55288C4.58968 10.1314 4.93036 10.6586 5.46196 10.8871C5.99356 11.1156 6.61054 10.9999 7.02328 10.5944C7.43603 10.1889 7.5626 9.57405 7.34358 9.03849C7.12456 8.50293 6.60344 8.15297 6.02483 8.15288C5.24483 8.14623 4.60698 8.77289 4.59983 9.55288Z" stroke="white" stroke-width="1.5" stroke-linecap="round" stroke-linejoin="round"/>
<path id="Vector-32" d="M18.7173 17.3618C18.3047 17.3248 17.9403 17.6294 17.9034 18.0419C17.8664 18.4545 18.1709 18.8189 18.5835 18.8558L18.7173 17.3618ZM21.5004 15.7748L22.2459 15.8565C22.2519 15.8021 22.2519 15.7472 22.2459 15.6928L21.5004 15.7748ZM18.5835 12.6948C18.1709 12.7318 17.8664 13.0962 17.9034 13.5087C17.9403 13.9213 18.3047 14.2258 18.7173 14.1888L18.5835 12.6948ZM5.41689 18.8558C5.82945 18.8189 6.13395 18.4545 6.09701 18.0419C6.06007 17.6294 5.69567 17.3248 5.28311 17.3618L5.41689 18.8558ZM2.5 15.7748L1.75449 15.6928C1.74851 15.7472 1.7485 15.8021 1.75446 15.8565L2.5 15.7748ZM5.28308 14.1888C5.69564 14.2258 6.06005 13.9213 6.09701 13.5087C6.13397 13.0962 5.82948 12.7318 5.41692 12.6948L5.28308 14.1888ZM18.5835 18.8558C20.4173 19.02 22.0454 17.6867 22.2459 15.8565L20.7549 15.6931C20.6433 16.7114 19.7375 17.4531 18.7173 17.3618L18.5835 18.8558ZM22.2459 15.6928C22.0448 13.8631 20.4169 12.5306 18.5835 12.6948L18.7173 14.1888C19.7373 14.0974 20.643 14.8388 20.7549 15.8568L22.2459 15.6928ZM5.28311 17.3618C4.26287 17.4531 3.35709 16.7114 3.24554 15.6931L1.75446 15.8565C1.95496 17.6867 3.58306 19.02 5.41689 18.8558L5.28311 17.3618ZM3.24551 15.8568C3.35742 14.8388 4.26309 14.0974 5.28308 14.1888L5.41692 12.6948C3.58354 12.5306 1.95564 13.8631 1.75449 15.6928L3.24551 15.8568Z" fill="white"/>
</g>
</g>
</svg>
